<svg width="192" height="192" viewBox="0 0 192 192" fill="none" xmlns="http://www.w3.org/2000/svg">
<rect width="192" height="192" rx="10" fill="#625EA0"/>
<g opacity="0.8">
<circle cx="96" cy="96" r="96" fill="#625EA0"/>
</g>
<g clip-path="url(#clip0)">
<path d="M90.695 109.32C90.695 109.32 82.4573 114.78 76.9028 109.868L75.812 109.32C75.812 109.32 78.0062 107.138 79.0971 107.138C79.0971 107.138 65.3801 96.2176 65.9318 95.133L67.0226 94.036C67.0226 94.036 60.5027 90.7573 58.8476 87.4911C62.1495 86.1456 65.7209 85.5823 69.2795 85.8455C69.2795 85.8455 63.2486 81.4822 62.1452 78.2036C62.1452 78.2036 63.7877 76.5705 64.3394 77.119C64.3394 77.119 58.3085 70.0131 57.2051 65.6498C59.9159 65.0328 62.7319 65.0328 65.4428 65.6498C65.4428 65.6498 64.3394 64.0167 61.5935 60.7381C61.938 60.582 62.3121 60.5012 62.6906 60.5012C63.0691 60.5012 63.4433 60.582 63.7877 60.7381C63.7877 60.7381 60.5027 55.8263 60.5027 54.7417C60.5027 54.7417 63.7877 53.6446 64.8911 54.1932C64.8911 54.1932 61.0418 37.8122 61.0418 34.5336C61.0418 34.5336 67.0853 35.6306 69.8187 39.9939V38.3608C69.8187 38.3608 74.2071 39.9939 75.3105 42.724L76.9655 41.1408C76.9655 41.1408 84.6515 47.6857 84.6515 50.4158L85.7549 48.7827C85.7549 48.7827 97.8294 55.8761 100.024 64.0666C100.024 64.0666 103.321 54.7916 115.396 46.6136V48.7952C115.396 48.7952 121.439 40.0687 124.737 38.9716C124.737 38.9716 126.931 43.8834 125.828 44.968C127.923 42.2966 130.537 40.071 133.514 38.4231L135.156 37.3261C135.156 37.3261 137.902 40.0562 137.363 40.6047C137.363 40.6047 147.243 26.954 157.675 27.5025C157.675 27.5025 154.929 42.7864 152.183 45.5165C152.183 45.5165 155.468 45.5165 155.468 47.1621C155.468 47.1621 156.572 52.0739 149.437 59.7158C149.437 59.7158 157.123 62.446 157.675 64.6276C157.675 64.6276 148.334 73.9026 144.497 73.9026C144.497 73.9026 146.14 79.9115 140.096 81.5446C140.096 81.5446 159.317 84.2747 157.65 86.4564C157.65 86.4564 158.741 89.735 157.65 90.2836C157.65 90.2836 173.022 91.9167 177.962 95.1953C182.902 98.474 181.799 98.4616 181.799 98.4616C181.799 98.4616 176.319 103.86 171.944 103.311L174.689 104.408C174.689 104.408 168.646 107.687 165.913 107.138C165.913 107.138 169.21 109.868 168.659 110.417C168.107 110.965 155.481 114.232 155.481 114.232L154.39 114.78C154.39 114.78 158.766 119.679 156.572 121.325C156.572 121.325 142.779 118.059 141.751 115.329C141.751 115.329 142.303 118.059 140.096 118.059C137.889 118.059 137.363 121.325 137.363 121.325L136.259 124.055C136.259 124.055 135.156 125.701 130.768 124.055C130.768 124.055 136.259 131.149 133.514 132.782L132.962 134.963C132.962 134.963 119.784 137.132 115.947 129.515V131.697C115.947 131.697 110.455 130.064 109.904 127.334L109.365 128.967L105.515 124.055L104.964 126.237C104.964 126.237 95.0835 126.237 95.6351 113.683L92.8892 108.771L90.695 109.32Z" fill="#F47912"/>
<path d="M84.0986 120.79L92.888 109.869L95.0822 108.772L94.5305 110.418L85.202 121.874L84.0986 120.79Z" fill="#F47912"/>
<path d="M97.8301 102.227C97.8301 102.227 117.591 73.2927 129.176 62.9207" stroke="#F47912" stroke-miterlimit="10"/>
</g>
<g clip-path="url(#clip1)">
<path d="M79.411 124.736C79.411 124.736 87.8835 131.775 96.5299 128.968C96.5299 128.968 93.3311 124.766 90.6623 124.333C95.243 124.32 99.7449 123.124 103.756 120.856C107.768 118.587 111.161 115.318 113.626 111.347C115.736 108.933 118.104 106.773 120.684 104.907C123.413 102.915 126.364 101.266 129.474 99.9936C122.23 101.474 116.295 102.24 112.21 102.653C104.847 103.398 103.739 103.025 100.323 104.217C96.9075 105.409 86.4226 112.657 86.4226 112.657L97.2327 93.136C97.8705 88.8955 98.2465 84.6171 98.3584 80.3264C98.435 76.1036 98.2981 71.879 97.9484 67.6698C97.2257 51.907 99.2237 40.1002 100.497 40.7513C101.204 41.1719 90.8149 58.9244 90.8149 58.9244C90.8149 58.9244 71.3165 71.7947 76.474 100.912C76.474 100.912 76.7728 79.2319 45.9008 57.2181L37.7246 51.2724C37.7246 51.2724 43.0106 97.2722 64.0648 110.057C64.0648 110.057 46.6833 94.7801 13.6665 102.914C13.6665 102.914 47.9276 129.703 63.1248 123.47C56.7819 125.354 50.9884 128.814 46.2524 133.546C41.5164 138.278 37.9826 144.137 35.9611 150.609C35.9611 150.609 66.3558 140.147 71.4362 131.902C71.7258 136.931 72.8188 141.879 74.6714 146.545C77.0238 142.683 77.983 138.09 77.3818 133.567C77.365 130.42 77.3444 127.26 77.3154 124.117L86.7577 144.584L89.0626 143.836L79.411 124.736Z" fill="#F7A15A"/>
</g>
<defs>
<clipPath id="clip0">
<rect x="57.2051" y="27.4287" width="124.719" height="107.835" rx="10" fill="white"/>
</clipPath>
<clipPath id="clip1">
<rect width="111.55" height="103.852" rx="10" transform="matrix(-0.95113 0.308789 -0.294324 -0.955706 138.075 127.924)" fill="white"/>
</clipPath>
</defs>
</svg>
