<svg width="731" height="212" viewBox="0 0 731 212" fill="none" xmlns="http://www.w3.org/2000/svg">
<g clip-path="url(#clip0)">
<path d="M463 104.667L509.96 94L700 99.3333L680.742 110L463 104.667Z" fill="#DF6855"/>
<path d="M11.1577 95.9021L31.9114 103.657L57.8535 101.091L44.9103 80.3368L30.1819 75.1484L13.7798 72.5263C13.7798 72.5263 18.9682 88.0916 11.1577 95.9021Z" fill="#F4D8C4"/>
<path d="M163.184 142.263H18.1313V167.368H163.184V142.263Z" fill="#FFDB7F"/>
<path d="M165.973 122.737H18.1313V142.263H165.973V122.737Z" fill="#B5AAA9"/>
<path d="M34.5332 103.657V127.033H148.678C148.678 127.033 153.867 119.222 148.678 103.657H34.5332Z" fill="#F26983"/>
<path d="M8.73682 72.5263L28.2631 78.1053L162.158 75.3158L145.421 66.9474L8.73682 72.5263Z" fill="#D89561"/>
<path d="M34.5332 75.3716C34.5332 75.3716 37.0995 100.812 34.5332 103.657H161.789C161.789 103.657 169.432 83.6842 159.055 72.5263L34.5332 75.3716Z" fill="#D89561"/>
<path d="M432.202 126.586H240.565V167.368H432.202V126.586Z" fill="#4485B0"/>
<path d="M444.363 98.0051H212V126.569H444.363V98.0051Z" fill="#756153"/>
<path d="M456.581 69.3684H224.218V97.9326H456.581V69.3684Z" fill="#5FA293"/>
<path d="M501.604 114.189L513.933 105.987V167.746H501.604V114.189Z" fill="#E4E4E4"/>
<path d="M513.932 105.987H653.964C653.964 105.987 666.349 147.16 653.964 167.746H509.804L513.932 105.987Z" fill="#977E54"/>
<path d="M505.677 37.0443V94.8422L699.266 103.099C699.266 103.099 707.523 61.8706 699.266 45.4127L505.677 37.0443Z" fill="#DF6855"/>
<path d="M469 50.2223L505.383 37C505.383 37 515.771 50.2223 505.383 98.3694L469 103C469 103 484.609 98.5926 469 50.2223Z" fill="#F4D8C4"/>
<path d="M551.033 0V41.1726L641.579 45.3011C641.579 45.3011 645.707 8.25684 641.579 4.12842L551.033 0Z" fill="#8FC49F"/>
<path d="M538.646 8.25684L551.032 0V41.1726H538.646V8.25684Z" fill="#F2E1E2"/>
<path d="M34.8685 142.263H29.2896V167.368H34.8685V142.263Z" fill="#6A6EFF"/>
<path d="M27.8949 124.132H25.1055V140.868H27.8949V124.132Z" fill="white"/>
<path d="M61.7576 103.94H46.1924V127.316H61.7576V103.94Z" fill="#554E8F"/>
<path d="M405.645 128.651H401.572V165.36H405.645V128.651Z" fill="white"/>
<path d="M238.5 104.086H234.427V120.377H238.5V104.086Z" fill="white"/>
<path d="M248.71 106.151H244.637V118.368H248.71V106.151Z" fill="white"/>
<path d="M238.5 75.5051L246.645 83.6504" stroke="white" stroke-width="2.78947" stroke-miterlimit="10"/>
<path d="M238.5 91.7958L246.645 83.6505" stroke="white" stroke-width="2.78947" stroke-miterlimit="10"/>
<path d="M250.718 79.578L254.79 83.6506" stroke="white" stroke-width="2.78947" stroke-miterlimit="10"/>
<path d="M250.718 91.7958L254.79 83.6505" stroke="white" stroke-width="2.78947" stroke-miterlimit="10"/>
<path d="M548.97 112.124H524.255V165.682H548.97V112.124Z" fill="#FFE4AA"/>
<path d="M581.886 28.843C587.586 28.843 592.207 24.2221 592.207 18.5219C592.207 12.8218 587.586 8.2009 581.886 8.2009C576.185 8.2009 571.564 12.8218 571.564 18.5219C571.564 24.2221 576.185 28.843 581.886 28.843Z" fill="#62A3AE"/>
<path d="M633.378 4.12836H629.25V41.1726H633.378V4.12836Z" fill="#62A3AE"/>
<path d="M730.842 167.368H0V184.105H730.842V167.368Z" fill="#8A3E1B"/>
<path d="M100.421 184.105L106 212H122.737L128.316 184.105H100.421Z" fill="#8A3E1B"/>
<path d="M357.053 184.105L362.632 212H373.79L379.369 184.105H357.053Z" fill="#8A3E1B"/>
<path d="M608.105 189.684L613.684 212H624.842L630.421 189.684H608.105Z" fill="#753518"/>
<path d="M150 26.9053L180.684 23L221.578 160.186L190.894 168.053L150 26.9053Z" fill="#C53F2B"/>
<path d="M183.42 32.7467L153.776 39.1053L151.42 31.5196L181.116 25.1053L183.42 32.7467Z" fill="#85B053"/>
</g>
<defs>
<clipPath id="clip0">
<rect width="730.842" height="212" fill="white"/>
</clipPath>
</defs>
</svg>
