<svg width="910" height="785" viewBox="0 0 910 785" fill="none" xmlns="http://www.w3.org/2000/svg">
<ellipse cx="445.5" cy="745.5" rx="445.5" ry="15.5" fill="black"/>
<path d="M666.093 277C666.093 277 691.621 351.855 706.938 418.072L855 467.016C855 467.016 852.447 530.354 849.894 536.112C847.342 541.871 694.174 544.75 686.516 541.871C678.857 538.992 594.615 475.653 592.062 441.105C589.51 406.556 666.093 277 666.093 277Z" fill="#35588F"/>
<path d="M604 444.5C621.667 471.167 675.1 528.4 711.5 528C727.5 538 761.1 538.8 841.5 528" stroke="black"/>
<path d="M734.299 436.094L854.552 485.326L856.48 462.709C781.972 446.638 756.205 427.161 752.635 419.432L734.299 436.094Z" fill="#223A5F"/>
<path d="M793.945 270.798L753.593 692.063C753.593 692.063 675.771 700.719 664.241 686.292C652.712 671.866 655.594 314.079 649.83 290.996C644.065 267.913 791.063 270.798 791.063 270.798" fill="#719AEC"/>
<path d="M710.358 80.3636C710.358 80.3636 759.358 71.7075 770.887 146.727C782.416 221.747 768.005 195.779 776.652 213.091C785.298 230.403 814.122 259.257 811.239 262.142C808.357 265.028 802.592 279.455 779.534 282.34C756.475 285.225 681.535 319.85 681.535 319.85L644.065 342.933C644.065 342.933 644.065 262.142 635.418 247.715C626.771 233.289 644.065 150.5 644.065 150.5C644.065 150.5 658 116.5 669 105L710.358 80.3636Z" fill="#FFA254"/>
<path d="M587.436 107.199C587.436 107.199 576.23 109.825 547.42 113.593L564.853 162.836L598.53 154.956L587.436 107.199Z" fill="#528BC5"/>
<path d="M586.995 113.027C586.995 113.027 575.466 114.152 546.643 114.066L557.394 165.194L591.981 161.847L586.995 113.027Z" fill="#3A6B93"/>
<path d="M707.594 694.949H724.887V706.49H707.594V694.949Z" fill="#FC95A9"/>
<path d="M726.887 706.49H709.594C709.594 706.49 692.3 720.917 675.006 715.146C657.712 709.375 620.242 723.802 620.242 723.802L602.948 732.458V744H726.887V706.49Z" fill="white"/>
<path d="M648.143 715.608C648.143 715.608 657.856 719.33 660.681 718.695C663.505 718.06 652.87 723.427 652.87 723.427L639.726 717.657L648.143 715.608Z" fill="black"/>
<path d="M645.183 723.802L636.247 718.32L627.889 720.917L639.418 726.688L645.183 723.802Z" fill="black"/>
<path d="M602.948 735.344H726.887V744H602.948V735.344Z" fill="black"/>
<path d="M699.636 70.9573L708.514 83.7106L695.14 89.7699L686.262 77.0166L699.636 70.9573Z" fill="#DD7A92"/>
<path d="M696.8 31.5998C696.8 31.5998 714.368 59.257 707.341 69.6285C700.314 80 668.691 80 668.691 80C668.691 80 654.637 69.6285 654.637 59.257H651.123V48.8856C651.123 48.8856 644.096 24.6854 651.123 21.2283C651.123 21.2283 665.178 3.94248 682.746 14.314C682.746 14.314 689.773 17.7711 696.8 31.5998Z" fill="#FC95A9"/>
<path d="M703.265 42C703.265 42 710.204 14 696.327 7C688.816 2.9523 680.537 0.565957 672.041 0C663.755 1.59788 655.627 3.94056 647.755 7C640.816 10.5 637.347 17.5 633.878 17.5C630.408 17.5 620 17.5 620 21C620 24.5 620 31.5 630.408 31.5C640.875 30.948 651.301 29.7793 661.633 28C661.633 28 682.449 42 685.918 42H703.265Z" fill="#6C3C21"/>
<path d="M875.412 495.858C878.295 495.858 875.412 510.285 875.412 510.285H852.354V495.858H875.412Z" fill="#FC95A9"/>
<path d="M866.765 510.285C866.765 510.285 866.765 550.68 881.177 567.992C883.616 573.054 886.51 577.883 889.824 582.419C892.706 585.304 901.353 585.304 901.353 585.304V492.972H875.412C875.412 492.972 875.412 507.399 866.765 510.285Z" fill="white"/>
<path d="M867.486 534.551L876.594 534.464L877.574 540.841L868.466 540.927L867.486 534.551Z" fill="black"/>
<path d="M869.907 543.149L881.177 542.024L884.059 550.68H872.53L869.907 543.149Z" fill="black"/>
<path d="M724.77 109.217C724.77 109.217 704.593 83.249 678.653 146.727C652.712 210.205 618.5 211 618.5 211C618.5 211 584.5 196.5 575 183.5C563.5 161.5 569.125 164.039 569.125 164.039C569.125 164.039 583.536 140.956 572.007 132.3C560.478 123.644 554.713 135.186 554.713 135.186C554.713 135.186 540.302 143.842 554.713 169.81C554.713 171.917 559.5 197.566 580.5 217C601.5 236.434 636.331 241.079 654 236.434C661.004 234.587 711.453 215.053 727.652 155.383C730.68 144.108 731.656 132.38 730.534 120.759C730.534 119.662 730.794 117.47 724.77 109.217Z" fill="#FC95A9"/>
<path d="M621.007 210.206L626.771 244.83C626.771 244.83 750.71 227.518 739.181 132.3C727.652 37.083 664.241 161.154 664.241 161.154C664.241 161.154 658.477 190.008 644.065 192.893L621.007 210.206Z" fill="#EE8935"/>
<path d="M901.353 492.972H910V585.304H901.353V492.972Z" fill="black"/>
<path d="M695 113.5C706.333 98.8333 730.8 80.2 738 123C745.2 165.8 731.667 186.833 724 192" stroke="black"/>
<path d="M659 346.5L666.5 677" stroke="black"/>
<path d="M806 261C803.306 265.209 798.152 277.306 785.5 277C772.848 276.694 756.5 282 739.5 291.5" stroke="black"/>
<path d="M771.5 159C777.667 179.167 782.7 219.9 753.5 221.5C762.167 216.5 777.9 197 771.5 159Z" fill="#BF712F"/>
<path d="M773.415 205C772.127 214.29 763.935 219.323 760 220.677C771.59 217.89 772.5 214.5 773.415 211.968L780 224.5L791 234.5C785.42 226.139 773.951 207.516 773.415 205Z" fill="#BF712F"/>
<path d="M174 741C270.098 741 348 661.978 348 564.5C348 467.022 270.098 388 174 388C77.9025 388 0 467.022 0 564.5C0 661.978 77.9025 741 174 741Z" fill="#BBE6D2" fill-opacity="0.77"/>
<path d="M188.795 91C188.795 91 161.087 91.0693 146.476 105.175C131.865 119.282 140.092 147.424 130.352 166.233C120.611 185.041 106 208.551 106 208.551C106 208.551 169.314 232.061 203.406 208.551C237.499 185.041 222.888 185.041 222.888 185.041C222.888 185.041 213.147 91 188.795 91Z" fill="#441E1E"/>
<path d="M128.962 261.933L114.423 306.7L191.962 267.529C191.962 284.317 206.5 306.7 206.5 306.7L102.308 359.86C68.3846 387.839 49 348.669 49 348.669C49 348.669 53.8462 309.498 82.9231 242.348C112 175.198 136.231 197.581 136.231 197.581C175 247.944 208.923 197.581 208.923 197.581H213.769L233.154 208.773C242.846 214.369 281.615 298.306 281.615 298.306L330.077 247.944L364 287.115C364 287.115 320.385 337.477 291.308 365.456C262.231 393.435 233.154 354.264 233.154 354.264V371.052C218.615 393.435 112 371.052 112 371.052C112 371.052 114.423 289.912 128.962 261.933Z" fill="#F14478"/>
<path d="M170.072 663.609L144.451 657.888L138.674 692.42L164.294 698.141L170.072 663.609Z" fill="#F7A15A"/>
<path d="M364 653H342V698H364V653Z" fill="#F7A15A"/>
<path d="M212.146 412.414C259.859 472.108 272.872 504.668 272.872 531.801C272.872 558.935 216.484 689.176 216.484 689.176C203.471 700.03 112.381 689.176 112.381 689.176L147.082 607.776L181.783 526.375C181.783 526.375 147.082 493.814 116.719 466.681C86.3558 439.547 112.381 369 112.381 369C112.381 369 177.445 390.707 225.159 369C225.159 369 242.509 385.28 350.949 385.28C350.949 385.28 394.325 385.28 398.662 493.814C398.662 493.814 403 656.616 403 662.043H320.586L316.248 499.241L251.184 493.814L212.146 412.414Z" fill="#4E79E7"/>
<path d="M265.5 496.5C256.268 476.092 234.665 433.681 220.238 422.861C219.813 422.562 219.401 422.275 219 422C219.406 422.26 219.819 422.547 220.238 422.861C234.473 432.886 261.616 456.079 265.5 475.5C275.667 481.667 299.6 494.1 314 494.5C307.5 495.833 288.7 498.1 265.5 496.5Z" fill="#2E4E9E"/>
<path d="M133 687C133 687 146.07 696.818 167.854 691.909C170.78 700.546 176.317 707.744 183.489 712.234C190.662 716.723 199.01 718.218 207.064 716.455C237.561 711.545 228.848 741 228.848 741H133V687Z" fill="#999EA8"/>
<path d="M335 690C335 690 360.971 700.8 369.629 690C369.629 690 382.614 711.6 399.929 711.6H430.229C430.229 711.6 443.214 733.2 430.229 738.6C417.243 744 335 738.6 335 738.6V690Z" fill="#999EA8"/>
<path d="M183 273.909C183 273.909 211.761 263.364 216.555 258.091C221.348 252.818 235.729 237 245.316 237C254.903 237 235.729 252.818 235.729 252.818C235.729 252.818 250.109 268.636 230.935 284.455H216.555L192.587 295L183 273.909Z" fill="#F7A15A"/>
<path d="M333 262.6C336.915 253.478 341.56 244.775 346.88 236.6C351.506 231.4 346.88 215.8 346.88 215.8C346.88 215.8 351.506 195 365.386 195C379.265 195 383.892 226.2 379.265 236.6C374.023 246.051 367.812 254.777 360.759 262.6L346.88 273L333 262.6Z" fill="#F7A15A"/>
<path d="M261 237.2L285.038 180L333.115 195.6L386 180L361.962 252.8L323.5 258L261 237.2Z" fill="#457EF1"/>
<path d="M158.857 142C158.857 142 158.857 192.462 152.286 192.462C143.343 193.794 134.544 195.905 126 198.769C126 198.769 158.857 255.538 218 198.769H185.143V173.538C178.429 170.716 172.53 166.372 167.951 160.878C163.373 155.385 160.252 148.907 158.857 142Z" fill="#E79149"/>
<path d="M152.358 129.865C152.358 129.865 166.904 133.806 186.299 118.039C205.694 102.273 200.845 137.748 200.845 137.748C200.845 137.748 205.694 153.515 200.845 161.398C195.996 169.282 171.753 188.99 157.206 153.515C157.206 153.515 147.509 141.69 152.358 129.865Z" fill="#F7A15A"/>
<path d="M204 305.73C192.186 316.516 118.098 353.308 82.5304 370.355C77.5764 372.74 67.4459 367.939 63 365.241C101.87 361.15 111.905 323.862 112.064 305.73L191.615 269C190.853 278.299 199.554 297.361 204 305.73Z" fill="#B52A54"/>
<path d="M354.541 274C330.703 315.677 285.486 369.241 259 371.574C273.662 383.307 288.797 368.417 294.946 364.696C299.78 361.771 339.248 314.942 364 286.625L354.541 274Z" fill="#B52A54"/>
<path d="M356 279.157C350.343 280.289 331.643 264.857 323 257C323 262.657 339.029 281.357 347.043 290L356 279.157Z" fill="#B52A54"/>
<path d="M196 517.5L127.043 476L183 526.5L105 687H127.043L196 517.5Z" fill="#2D3E6B"/>
<path d="M339 662L318 497V662H339Z" fill="#2D3E6B"/>
<path d="M226.5 291V371L233.5 375C235.1 363.8 229.5 314.333 226.5 291Z" fill="#B52A54"/>
<path d="M784.5 281L749 691.5H756.5L794 281H784.5Z" fill="#223A5F"/>
<path d="M794 284C789.032 280.8 742.597 295.333 720 303C730.35 297 773.646 282.5 794 276V284Z" fill="#223A5F"/>
<rect x="132" y="731" width="97" height="9" fill="white"/>
<rect x="335" y="731" width="101" height="9" fill="white"/>
<path d="M385.5 180.5L336 197L322 257L363 250.5L385.5 180.5Z" fill="#295ABD"/>
<g filter="url(#filter0_f)">
<circle cx="839" cy="735" r="48" fill="#F79CFF"/>
</g>
<defs>
<filter id="filter0_f" x="574" y="470" width="530" height="530" filterUnits="userSpaceOnUse" color-interpolation-filters="sRGB">
<feFlood flood-opacity="0" result="BackgroundImageFix"/>
<feBlend mode="normal" in="SourceGraphic" in2="BackgroundImageFix" result="shape"/>
<feGaussianBlur stdDeviation="108.5" result="effect1_foregroundBlur"/>
</filter>
</defs>
</svg>
