<svg width="910" height="781" viewBox="0 0 910 781" fill="none" xmlns="http://www.w3.org/2000/svg">
<ellipse cx="445.5" cy="741.5" rx="445.5" ry="15.5" fill="black"/>
<path d="M755.925 315.972C755.925 315.972 767.296 375.56 771.831 427.491L879.171 480.587C879.171 480.587 870.425 528.409 867.865 532.507C865.305 536.604 748.514 522.31 742.999 519.3C737.484 516.29 680.224 459.129 681.995 432.62C683.765 406.111 755.925 315.972 755.925 315.972Z" fill="#35588F"/>
<path d="M690.558 435.999C701.172 458.149 735.791 507.363 763.604 510.989C774.737 520.307 800.286 524.541 862.785 525.021" stroke="black"/>
<path d="M796.479 450.783L877.165 488.469L878.459 471.156C828.466 458.854 811.177 443.945 808.782 438.028L796.479 450.783Z" fill="#223A5F"/>
<path d="M891.105 497C893.118 497 891.105 508 891.105 508H875V497H891.105Z" fill="#FC95A9"/>
<path d="M885 510.875C885 510.875 885 550.25 895 567.125C896.692 572.059 898.701 576.766 901 581.188C903 584 909 584 909 584V494H891C891 494 891 508.062 885 510.875Z" fill="white"/>
<path d="M885 539.067L891.32 539L892 543.933L885.68 544L885 539.067Z" fill="black"/>
<path d="M889 549.78L896.167 549L898 555H890.668L889 549.78Z" fill="black"/>
<path d="M892.303 270.798L851.95 692.063C851.95 692.063 774.128 700.719 762.599 686.292C751.07 671.866 753.952 314.079 748.187 290.996C742.423 267.913 889.42 270.798 889.42 270.798" fill="#719AEC"/>
<path d="M811.716 80.3636C811.716 80.3636 860.716 71.7075 872.245 146.727C883.774 221.747 869.362 195.779 878.009 213.091C886.656 230.403 915.479 259.257 912.597 262.142C909.715 265.028 903.95 279.455 880.892 282.34C857.833 285.225 782.893 319.85 782.893 319.85L745.423 342.933C745.423 342.933 745.423 262.142 736.776 247.715C728.129 233.289 745.423 150.5 745.423 150.5C745.423 150.5 759.358 116.5 770.358 105L811.716 80.3636Z" fill="#FFA254"/>
<path d="M688.794 107.199C688.794 107.199 677.587 109.825 648.778 113.593L666.21 162.836L699.888 154.956L688.794 107.199Z" fill="#528BC5"/>
<path d="M688.352 113.027C688.352 113.027 676.823 114.152 648 114.066L658.751 165.194L693.339 161.847L688.352 113.027Z" fill="#3A6B93"/>
<path d="M805.952 694.949H823.246V706.49H805.952V694.949Z" fill="#FC95A9"/>
<path d="M825.246 706.49H807.952C807.952 706.49 790.658 720.917 773.365 715.146C756.071 709.375 718.601 723.802 718.601 723.802L701.307 732.458V744H825.246V706.49Z" fill="white"/>
<path d="M746.5 715.608C746.5 715.608 756.214 719.33 759.038 718.695C761.863 718.06 751.227 723.427 751.227 723.427L738.084 717.657L746.5 715.608Z" fill="black"/>
<path d="M735.294 726.482L726.359 721L718 723.597L729.529 729.368L735.294 726.482Z" fill="black"/>
<path d="M690 736H826V745H690V736Z" fill="black"/>
<path d="M800.994 70.9573L809.871 83.7106L796.497 89.7699L787.62 77.0166L800.994 70.9573Z" fill="#DD7A92"/>
<path d="M798.157 31.5998C798.157 31.5998 815.725 59.257 808.698 69.6285C801.671 80 770.049 80 770.049 80C770.049 80 755.994 69.6285 755.994 59.257H752.481V48.8856C752.481 48.8856 745.453 24.6854 752.481 21.2283C752.481 21.2283 766.535 3.94248 784.103 14.314C784.103 14.314 791.13 17.7711 798.157 31.5998Z" fill="#FC95A9"/>
<path d="M804.623 42C804.623 42 811.562 14 797.684 7C790.174 2.9523 781.895 0.565957 773.398 0C765.112 1.59788 756.985 3.94056 749.113 7C742.174 10.5 738.704 17.5 735.235 17.5C731.766 17.5 721.357 17.5 721.357 21C721.357 24.5 721.357 31.5 731.766 31.5C742.232 30.948 752.658 29.7793 762.99 28C762.99 28 783.806 42 787.276 42H804.623Z" fill="#6C3C21"/>
<path d="M826.127 109.217C826.127 109.217 805.95 83.249 780.01 146.727C754.069 210.205 719.857 211 719.857 211C719.857 211 685.857 196.5 676.357 183.5C664.857 161.5 670.482 164.039 670.482 164.039C670.482 164.039 684.893 140.956 673.364 132.3C661.835 123.644 656.07 135.186 656.07 135.186C656.07 135.186 641.659 143.842 656.07 169.81C656.07 171.917 660.857 197.566 681.857 217C702.857 236.434 737.688 241.079 755.357 236.434C762.361 234.587 812.81 215.053 829.009 155.383C832.036 144.108 833.013 132.38 831.891 120.759C831.891 119.662 832.151 117.47 826.127 109.217Z" fill="#FC95A9"/>
<path d="M722.365 210.206L728.13 244.83C728.13 244.83 852.069 227.518 840.54 132.3C829.01 37.083 765.6 161.154 765.6 161.154C765.6 161.154 759.835 190.008 745.423 192.893L722.365 210.206Z" fill="#EE8935"/>
<path d="M796.357 113.5C807.691 98.8333 832.157 80.2 839.357 123C846.557 165.8 833.024 186.833 825.357 192" stroke="black"/>
<path d="M757.357 346.5L764.857 677" stroke="black"/>
<path d="M904.357 261C901.663 265.209 896.51 277.306 883.857 277C871.205 276.694 854.857 282 837.857 291.5" stroke="black"/>
<path d="M872.857 159C879.024 179.167 884.057 219.9 854.857 221.5C863.524 216.5 879.257 197 872.857 159Z" fill="#BF712F"/>
<path d="M874.772 205C873.484 214.29 865.292 219.323 861.357 220.677C872.948 217.89 873.857 214.5 874.772 211.968L881.357 224.5L892.357 234.5C886.777 226.139 875.309 207.516 874.772 205Z" fill="#BF712F"/>
<path d="M287 736C377.575 736 451 663.022 451 573C451 482.978 377.575 410 287 410C196.425 410 123 482.978 123 573C123 663.022 196.425 736 287 736Z" fill="#BBE6D2" fill-opacity="0.77"/>
<path d="M300.966 135C300.966 135 274.874 135.064 261.115 148.068C247.356 161.072 255.104 187.016 245.931 204.355C236.759 221.694 223 243.367 223 243.367C223 243.367 282.621 265.041 314.724 243.367C346.828 221.694 333.069 221.694 333.069 221.694C333.069 221.694 323.897 135 300.966 135Z" fill="#441E1E"/>
<path d="M244.392 292.847L230.685 334.262L303.792 298.024C303.792 313.555 317.5 334.262 317.5 334.262L219.262 383.443C187.277 409.327 169 373.089 169 373.089C169 373.089 173.569 336.851 200.985 274.728C228.4 212.606 251.246 233.313 251.246 233.313C287.8 279.905 319.785 233.313 319.785 233.313H324.354L342.631 243.667C351.769 248.844 388.323 326.497 388.323 326.497L434.015 279.905L466 316.143C466 316.143 424.877 362.735 397.462 388.62C370.046 414.504 342.631 378.266 342.631 378.266V393.797C328.923 414.504 228.4 393.797 228.4 393.797C228.4 393.797 230.685 318.732 244.392 292.847Z" fill="#E64690"/>
<path d="M283.319 676.463L259.168 671.174L253.722 703.102L277.873 708.392L283.319 676.463Z" fill="#F7A15A"/>
<path d="M466 655H445V696H466V655Z" fill="#F7A15A"/>
<path d="M322.925 432.208C367.944 487.494 380.222 517.649 380.222 542.779C380.222 567.909 327.018 688.532 327.018 688.532C314.74 698.584 228.795 688.532 228.795 688.532L261.536 613.143L294.277 537.753C294.277 537.753 261.536 507.597 232.888 482.468C204.239 457.338 228.795 392 228.795 392C228.795 392 290.184 412.104 335.203 392C335.203 392 351.573 407.078 453.889 407.078C453.889 407.078 494.815 407.078 498.907 507.597C498.907 507.597 503 658.377 503 663.403H425.24L421.148 512.623L359.759 507.597L322.925 432.208Z" fill="#4E79E7"/>
<path d="M373.053 509.494C364.307 490.732 343.84 451.739 330.173 441.792C329.771 441.517 329.379 441.253 329 441C329.385 441.239 329.776 441.503 330.173 441.792C343.658 451.009 369.373 472.332 373.053 490.187C382.684 495.857 405.358 507.288 419 507.655C412.842 508.881 395.032 510.965 373.053 509.494Z" fill="#1A5F96"/>
<path d="M248 699C248 699 260.396 705.727 281.057 702.364C283.833 708.282 289.084 713.213 295.887 716.29C302.689 719.366 310.607 720.39 318.246 719.182C347.171 715.818 338.907 736 338.907 736H248V699Z" fill="#999EA8"/>
<path d="M439 689C439 689 463.429 698.953 471.571 689C471.571 689 483.786 708.906 500.071 708.906H528.571C528.571 708.906 540.786 728.812 528.571 733.788C516.357 738.765 439 733.788 439 733.788V689Z" fill="#999EA8"/>
<path d="M296 304.364C296 304.364 322.991 294.545 327.49 289.636C331.988 284.727 345.484 270 354.481 270C363.478 270 345.484 284.727 345.484 284.727C345.484 284.727 358.979 299.455 340.985 314.182H327.49L304.997 324L296 304.364Z" fill="#F7A15A"/>
<path d="M437 293.4C440.67 284.979 445.025 276.946 450.012 269.4C454.349 264.6 450.012 250.2 450.012 250.2C450.012 250.2 454.349 231 467.361 231C480.373 231 484.711 259.8 480.373 269.4C475.459 278.124 469.636 286.179 463.024 293.4L450.012 303L437 293.4Z" fill="#F7A15A"/>
<path d="M369 269.8L391.692 217L437.077 231.4L487 217L464.308 284.2L428 289L369 269.8Z" fill="#457EF1"/>
<path d="M272.714 182C272.714 182 272.714 228.769 266.571 228.769C258.211 230.004 249.987 231.961 242 234.615C242 234.615 272.714 287.231 328 234.615H297.286V211.231C291.01 208.615 285.495 204.588 281.215 199.497C276.935 194.405 274.018 188.401 272.714 182Z" fill="#E79149"/>
<path d="M266.279 170.807C266.279 170.807 279.986 174.486 298.262 159.77C316.538 145.054 311.969 178.165 311.969 178.165C311.969 178.165 316.538 192.881 311.969 200.238C307.4 207.596 284.555 225.991 270.848 192.881C270.848 192.881 261.71 181.844 266.279 170.807Z" fill="#F7A15A"/>
<path d="M315 333.849C303.857 343.789 233.972 377.695 200.422 393.406C195.749 395.603 186.194 391.179 182 388.693C218.665 384.922 228.131 350.559 228.28 333.849L303.318 300C302.599 308.569 310.806 326.137 315 333.849Z" fill="#B52A54"/>
<path d="M457.081 304C434.605 342.816 391.973 392.705 367 394.878C380.824 405.806 395.095 391.937 400.892 388.472C405.449 385.748 442.662 342.132 466 315.759L457.081 304Z" fill="#B52A54"/>
<path d="M459 308.814C453.514 309.877 435.381 295.381 427 288C427 293.314 442.543 310.881 450.314 319L459 308.814Z" fill="#B52A54"/>
<path d="M314.269 507.759C233.304 491.107 223.683 432.982 228.994 406C185.512 445.964 253.67 509.609 293.185 536.436L228.994 690H293.185C333.948 636.191 395.235 524.41 314.269 507.759Z" fill="#1A5F96"/>
<path d="M443 663L423 510V663H443Z" fill="#1A5F96"/>
<path d="M337 320V394.286L342.768 398C344.086 387.6 339.472 341.667 337 320Z" fill="#B52A54"/>
<path d="M882.857 281L847.357 691.5H854.857L892.357 281H882.857Z" fill="#223A5F"/>
<path d="M892.357 284C887.39 280.8 840.954 295.333 818.357 303C828.707 297 872.003 282.5 892.357 276V284Z" fill="#223A5F"/>
<rect x="247" y="727" width="92" height="8" fill="white"/>
<rect x="439" y="727" width="95" height="8" fill="white"/>
<path d="M486 218L440.008 233.098L427 288L465.094 282.052L486 218Z" fill="#295ABD"/>
<g filter="url(#filter0_f)">
<circle cx="839" cy="731" r="48" fill="#F79CFF"/>
</g>
<path d="M458 408C463.431 432.153 478.549 479.954 495.567 477.938C497.679 454.625 493.123 408 458 408Z" fill="#185F97"/>
<defs>
<filter id="filter0_f" x="574" y="466" width="530" height="530" filterUnits="userSpaceOnUse" color-interpolation-filters="sRGB">
<feFlood flood-opacity="0" result="BackgroundImageFix"/>
<feBlend mode="normal" in="SourceGraphic" in2="BackgroundImageFix" result="shape"/>
<feGaussianBlur stdDeviation="108.5" result="effect1_foregroundBlur"/>
</filter>
</defs>
</svg>
