<svg width="128" height="97" viewBox="0 0 128 97" fill="none" xmlns="http://www.w3.org/2000/svg">
<g clip-path="url(#clip0)">
<path d="M63.2436 58.6378C63.2436 58.6378 57.4085 62.5055 53.4741 59.0263L52.7014 58.6378C52.7014 58.6378 54.2557 57.0925 55.0283 57.0925C55.0283 57.0925 45.3121 49.357 45.7029 48.5888L46.4756 47.8117C46.4756 47.8117 41.8573 45.4893 40.6849 43.1757C43.0238 42.2227 45.5536 41.8237 48.0742 42.0101C48.0742 42.0101 43.8023 38.9195 43.0207 36.5971C43.0207 36.5971 44.1842 35.4403 44.575 35.8288C44.575 35.8288 40.303 30.7955 39.5215 27.7048C41.4417 27.2677 43.4364 27.2677 45.3565 27.7048C45.3565 27.7048 44.575 26.548 42.63 24.2256C42.8739 24.1151 43.139 24.0579 43.4071 24.0579C43.6752 24.0579 43.9402 24.1151 44.1842 24.2256C44.1842 24.2256 41.8573 20.7464 41.8573 19.9782C41.8573 19.9782 44.1842 19.2011 44.9658 19.5897C44.9658 19.5897 42.2392 7.98647 42.2392 5.66407C42.2392 5.66407 46.52 6.44115 48.4561 9.5318V8.37501C48.4561 8.37501 51.5646 9.5318 52.3462 11.4657L53.5185 10.3442C53.5185 10.3442 58.9628 14.9802 58.9628 16.914L59.7443 15.7572C59.7443 15.7572 68.2971 20.7818 69.8513 26.5834C69.8513 26.5834 72.1871 20.0135 80.7399 14.2208V15.7661C80.7399 15.7661 85.0207 9.58478 87.3565 8.8077C87.3565 8.8077 88.9107 12.2869 88.1292 13.0551C89.6134 11.1629 91.4648 9.58641 93.5734 8.41916L94.7369 7.64208C94.7369 7.64208 96.6819 9.57595 96.3 9.96449C96.3 9.96449 103.299 0.295167 110.688 0.683706C110.688 0.683706 108.743 11.5098 106.798 13.4437C106.798 13.4437 109.125 13.4437 109.125 14.6093C109.125 14.6093 109.906 18.0885 104.853 23.5015C104.853 23.5015 110.297 25.4354 110.688 26.9807C110.688 26.9807 104.071 33.5506 101.354 33.5506C101.354 33.5506 102.517 37.8068 98.2362 38.9636C98.2362 38.9636 111.851 40.8975 110.67 42.4428C110.67 42.4428 111.443 44.7652 110.67 45.1537C110.67 45.1537 121.559 46.3105 125.058 48.6329C128.557 50.9553 127.776 50.9465 127.776 50.9465C127.776 50.9465 123.894 54.7701 120.795 54.3815L122.74 55.1586C122.74 55.1586 118.459 57.481 116.523 57.0925C116.523 57.0925 118.859 59.0263 118.468 59.4149C118.077 59.8034 109.134 62.117 109.134 62.117L108.361 62.5055C108.361 62.5055 111.461 65.9759 109.906 67.1415C109.906 67.1415 100.137 64.8279 99.4085 62.8941C99.4085 62.8941 99.7993 64.8279 98.2362 64.8279C96.673 64.8279 96.3 67.1415 96.3 67.1415L95.5185 69.0754C95.5185 69.0754 94.7369 70.241 91.6284 69.0754C91.6284 69.0754 95.5185 74.0999 93.5734 75.2567L93.1827 76.802C93.1827 76.802 83.8484 78.3385 81.1307 72.9431V74.4884C81.1307 74.4884 77.2406 73.3316 76.8498 71.3978L76.4679 72.5546L73.7414 69.0754L73.3506 70.6207C73.3506 70.6207 66.3521 70.6207 66.7429 61.7285L64.7978 58.2493L63.2436 58.6378Z" fill="#F47912"/>
<path d="M58.5713 66.7625L64.7971 59.027L66.3514 58.2499L65.9606 59.4156L59.3528 67.5307L58.5713 66.7625Z" fill="#F47912"/>
<path d="M68.2979 53.614C68.2979 53.614 82.2949 33.1186 90.5013 25.7717" stroke="#F47912" stroke-miterlimit="10"/>
</g>
<g clip-path="url(#clip1)">
<path d="M55.2508 69.5579C55.2508 69.5579 61.2522 74.5436 67.3767 72.5552C67.3767 72.5552 65.1108 69.579 63.2205 69.2721C66.4651 69.2628 69.654 68.4161 72.4955 66.8092C75.3371 65.2023 77.7407 62.8865 79.4866 60.0736C80.9809 58.364 82.658 56.8338 84.4862 55.5123C86.4193 54.1012 88.5092 52.9328 90.7119 52.0318C85.5807 53.0806 81.3768 53.6228 78.4834 53.9157C73.2678 54.4435 72.4832 54.1791 70.0637 55.0234C67.6442 55.8677 60.2173 61.0016 60.2173 61.0016L67.8745 47.1743C68.3263 44.1706 68.5926 41.14 68.6719 38.1008C68.7261 35.1096 68.6292 32.1172 68.3815 29.1357C67.8695 17.9703 69.2848 9.60714 70.187 10.0684C70.6873 10.3663 63.3286 22.941 63.3286 22.941C63.3286 22.941 49.5172 32.0575 53.1704 52.6825C53.1704 52.6825 53.382 37.3255 31.5143 21.7324L25.7229 17.5208C25.7229 17.5208 29.4671 50.1041 44.3805 59.16C44.3805 59.16 32.0686 48.3389 8.68163 54.1001C8.68163 54.1001 32.95 73.0763 43.7147 68.6608C39.2218 69.9956 35.118 72.4463 31.7634 75.798C28.4087 79.1496 25.9056 83.2998 24.4737 87.8845C24.4737 87.8845 46.0033 80.4736 49.6019 74.6336C49.807 78.196 50.5813 81.7004 51.8935 85.0058C53.5598 82.2701 54.2393 79.0165 53.8134 75.8128C53.8015 73.5836 53.7869 71.3455 53.7664 69.1192L60.4547 83.6171L62.0874 83.087L55.2508 69.5579Z" fill="#F7A15A"/>
</g>
<defs>
<clipPath id="clip0">
<rect width="88.3429" height="76.3832" fill="white" transform="translate(39.5215 0.63147)"/>
</clipPath>
<clipPath id="clip1">
<rect width="79.0146" height="73.5622" fill="white" transform="matrix(-0.95113 0.308789 -0.294324 -0.955706 96.8047 71.8159)"/>
</clipPath>
</defs>
</svg>
